<svg width="1280" height="760" viewBox="0 0 1280 760" fill="none" xmlns="http://www.w3.org/2000/svg">
  <defs>
    <linearGradient id="bg" x1="0" y1="0" x2="1280" y2="760" gradientUnits="userSpaceOnUse">
      <stop stop-color="#0A1020"/>
      <stop offset="1" stop-color="#0B2130"/>
    </linearGradient>
    <linearGradient id="bar" x1="314" y1="292" x2="1124" y2="292" gradientUnits="userSpaceOnUse">
      <stop stop-color="#31C5F3"/>
      <stop offset="1" stop-color="#6F6BFF"/>
    </linearGradient>
    <filter id="blur" x="-20%" y="-20%" width="140%" height="140%">
      <feGaussianBlur stdDeviation="10"/>
    </filter>
  </defs>
  <rect width="1280" height="760" rx="30" fill="url(#bg)"/>
  <rect x="0" y="0" width="236" height="760" fill="#0A0F1C"/>
  <rect x="18" y="18" width="42" height="42" rx="13" fill="#27C6F7"/>
  <rect x="66" y="24" width="132" height="16" rx="8" fill="#F4F7FF" fill-opacity=".9"/>
  <rect x="66" y="46" width="94" height="10" rx="5" fill="#A4B4DA" fill-opacity=".42"/>
  <rect x="8" y="116" width="220" height="42" rx="14" fill="#6B6BFF"/>
  <rect x="18" y="338" width="200" height="18" rx="9" fill="#A4B4DA" fill-opacity=".08"/>
  <rect x="18" y="386" width="200" height="18" rx="9" fill="#A4B4DA" fill-opacity=".08"/>
  <rect x="18" y="434" width="200" height="18" rx="9" fill="#A4B4DA" fill-opacity=".08"/>
  <rect x="18" y="482" width="200" height="18" rx="9" fill="#A4B4DA" fill-opacity=".08"/>
  <rect x="262" y="18" width="992" height="58" rx="18" fill="#131A31" stroke="#212C4C"/>
  <rect x="292" y="36" width="170" height="18" rx="9" fill="#F4F7FF" fill-opacity=".92"/>
  <rect x="1120" y="24" width="132" height="38" rx="12" fill="#6B6BFF"/>
  <rect x="262" y="96" width="992" height="286" rx="22" fill="#171F39" stroke="#253156"/>
  <rect x="290" y="124" width="374" height="58" rx="14" fill="#232D52"/>
  <rect x="678" y="124" width="374" height="58" rx="14" fill="#15324A"/>
  <rect x="1066" y="124" width="160" height="58" rx="14" fill="#2A2E4F"/>
  <rect x="290" y="198" width="936" height="44" rx="14" fill="#13203B"/>
  <g filter="url(#blur)">
    <rect x="314" y="272" width="884" height="22" rx="11" fill="url(#bar)"/>
    <rect x="314" y="322" width="884" height="14" rx="7" fill="#D9E4FF" fill-opacity=".18"/>
  </g>
  <rect x="290" y="404" width="454" height="170" rx="20" fill="#191F39" stroke="#253156"/>
  <rect x="772" y="404" width="482" height="170" rx="20" fill="#17273A" stroke="#253156"/>
  <rect x="290" y="600" width="964" height="130" rx="20" fill="#131A31" stroke="#253156"/>
  <text x="640" y="744" text-anchor="middle" fill="#B8C4EA" fill-opacity=".72" font-family="Segoe UI, Arial, sans-serif" font-size="20">
    Blurred dashboard preview for public repository documentation
  </text>
</svg>
