<svg width="1280" height="760" viewBox="0 0 1280 760" fill="none" xmlns="http://www.w3.org/2000/svg">
  <defs>
    <linearGradient id="bg" x1="0" y1="0" x2="1280" y2="760" gradientUnits="userSpaceOnUse">
      <stop stop-color="#0B1021"/>
      <stop offset="1" stop-color="#0A1F2C"/>
    </linearGradient>
    <filter id="panelBlur" x="-20%" y="-20%" width="140%" height="140%">
      <feGaussianBlur stdDeviation="8"/>
    </filter>
  </defs>
  <rect width="1280" height="760" rx="30" fill="url(#bg)"/>
  <rect x="24" y="24" width="224" height="712" rx="22" fill="#0A0F1D" stroke="#1B2543"/>
  <rect x="40" y="42" width="40" height="40" rx="12" fill="#28C5F4"/>
  <rect x="92" y="48" width="122" height="16" rx="8" fill="#F4F7FF" fill-opacity=".9"/>
  <rect x="40" y="158" width="188" height="18" rx="9" fill="#9FB0D6" fill-opacity=".08"/>
  <rect x="40" y="206" width="188" height="18" rx="9" fill="#9FB0D6" fill-opacity=".08"/>
  <rect x="40" y="254" width="188" height="18" rx="9" fill="#9FB0D6" fill-opacity=".08"/>
  <rect x="40" y="462" width="188" height="18" rx="9" fill="#6B6BFF" fill-opacity=".58"/>
  <rect x="270" y="24" width="986" height="72" rx="20" fill="#131A31" stroke="#202B4B"/>
  <rect x="302" y="48" width="260" height="18" rx="9" fill="#F4F7FF" fill-opacity=".92"/>
  <rect x="270" y="118" width="986" height="594" rx="24" fill="#171F39" stroke="#253156"/>
  <rect x="304" y="152" width="952" height="96" rx="18" fill="#11182E"/>
  <rect x="304" y="270" width="952" height="408" rx="20" fill="#121A31"/>
  <g filter="url(#panelBlur)">
    <rect x="334" y="182" width="210" height="16" rx="8" fill="#FFFFFF"/>
    <rect x="334" y="212" width="520" height="12" rx="6" fill="#D9E4FF" fill-opacity=".22"/>
    <rect x="334" y="310" width="280" height="44" rx="12" fill="#233355"/>
    <rect x="632" y="310" width="280" height="44" rx="12" fill="#163D58"/>
    <rect x="930" y="310" width="280" height="44" rx="12" fill="#2A2F50"/>
    <rect x="334" y="382" width="876" height="54" rx="14" fill="#1B2545"/>
    <rect x="334" y="454" width="876" height="54" rx="14" fill="#1B2545"/>
    <rect x="334" y="526" width="876" height="54" rx="14" fill="#1B2545"/>
    <rect x="334" y="608" width="160" height="40" rx="12" fill="#6B6BFF"/>
    <rect x="1060" y="608" width="150" height="40" rx="12" fill="#27C6F7"/>
  </g>
  <text x="640" y="736" text-anchor="middle" fill="#B8C4EA" fill-opacity=".72" font-family="Segoe UI, Arial, sans-serif" font-size="20">
    Blurred restore and backup management preview for public-safe documentation
  </text>
</svg>
